<?xml version="1.0" standalone="no"?>
<!DOCTYPE svg PUBLIC "-//W3C//DTD SVG 20010904//EN"
 "http://www.w3.org/TR/2001/REC-SVG-20010904/DTD/svg10.dtd">
<svg version="1.0" xmlns="http://www.w3.org/2000/svg"
 width="668.000000pt" height="668.000000pt" viewBox="0 0 668.000000 668.000000"
 preserveAspectRatio="xMidYMid meet">
<metadata>
Created by potrace 1.14, written by Peter Selinger 2001-2017
</metadata>
<g transform="translate(0.000000,668.000000) scale(0.100000,-0.100000)"
fill="#000000" stroke="none">
<path d="M2210 4668 c-38 -37 -78 -122 -105 -218 -9 -36 -24 -78 -32 -94 -12
-24 -58 -168 -78 -246 -8 -33 -95 -337 -104 -365 -5 -16 -31 -105 -57 -197
-26 -93 -51 -168 -55 -168 -16 0 -51 63 -275 495 -54 105 -119 231 -145 280
-26 50 -59 114 -74 142 -69 137 -212 175 -265 70 -20 -42 -21 -45 -15 -672 3
-346 8 -686 10 -755 2 -69 6 -193 9 -276 3 -123 7 -156 21 -178 24 -37 65 -56
119 -56 36 0 50 5 71 28 14 15 28 37 32 50 8 31 7 425 -1 892 l-7 385 44 -80
c24 -44 113 -190 199 -325 85 -135 175 -278 199 -319 65 -110 142 -150 208
-110 46 28 62 66 76 184 6 46 27 137 137 570 22 88 41 167 43 175 16 75 49
190 55 190 17 0 31 -113 35 -285 4 -170 11 -284 20 -337 2 -13 16 -115 30
-228 14 -113 28 -216 31 -230 2 -14 7 -49 10 -79 3 -29 12 -71 19 -92 8 -22
15 -43 15 -47 4 -39 27 -93 53 -119 26 -28 38 -33 78 -33 64 0 95 16 116 59
23 48 21 101 -6 186 -21 69 -44 176 -56 265 -3 25 -8 52 -10 60 -2 8 -6 35 -9
60 -3 25 -10 77 -15 115 -5 39 -12 115 -16 170 -3 55 -7 127 -10 160 -2 33 -7
110 -11 170 -3 61 -8 128 -10 150 -12 147 -16 216 -19 335 -4 152 -17 225 -48
271 -33 48 -67 69 -123 74 -46 5 -53 3 -84 -27z"/>
<path d="M5023 4692 c-40 -6 -62 -52 -73 -153 -6 -52 -12 -105 -15 -119 -2
-14 -7 -50 -10 -80 -3 -30 -11 -84 -16 -120 -6 -36 -12 -78 -14 -95 -2 -16 -8
-66 -14 -110 -11 -81 -17 -126 -27 -200 -2 -22 -7 -51 -9 -65 -6 -33 -15 -104
-20 -160 -3 -25 -9 -79 -14 -120 -6 -41 -12 -104 -16 -140 -3 -36 -10 -101
-15 -145 -6 -44 -12 -96 -14 -115 -3 -19 -8 -60 -11 -90 -4 -30 -9 -66 -11
-80 -9 -55 -16 -334 -9 -377 9 -60 43 -93 97 -93 44 0 74 13 100 43 14 16 18
41 18 146 1 140 6 214 17 281 8 41 12 47 58 69 96 48 231 130 352 215 68 47
129 86 136 86 7 0 24 -24 37 -52 13 -29 50 -109 83 -178 32 -69 70 -148 83
-176 30 -66 41 -74 108 -81 68 -7 111 9 132 49 21 40 16 58 -38 171 -27 54
-48 100 -48 102 0 3 -25 57 -56 121 -61 126 -75 166 -65 181 3 6 74 45 156 86
118 60 162 87 206 131 73 73 85 96 73 143 -6 27 -16 40 -34 46 -25 9 -61 -7
-428 -180 -29 -14 -55 -23 -58 -21 -2 3 -40 110 -83 239 -159 471 -261 716
-323 779 -61 61 -129 79 -235 62z m161 -485 c15 -45 31 -91 36 -102 5 -11 41
-112 80 -225 40 -113 85 -241 101 -286 39 -107 38 -115 -13 -144 -24 -13 -92
-57 -152 -98 -90 -62 -212 -132 -229 -132 -6 0 9 234 18 270 2 8 6 47 10 85 3
39 8 84 10 100 3 17 7 51 10 78 11 102 15 138 35 292 11 88 26 186 32 218 15
71 23 64 62 -56z"/>
<path d="M4010 4063 c-28 -12 -53 -42 -56 -70 -7 -61 -15 -380 -15 -593 0
-253 2 -244 -84 -387 -123 -203 -239 -353 -285 -368 -112 -35 -143 18 -144
245 0 132 10 361 18 410 2 14 7 54 10 90 8 88 16 160 22 190 2 14 7 71 9 127
l5 102 -28 19 c-32 22 -77 40 -112 46 -67 10 -145 -80 -130 -149 6 -28 2 -83
-15 -220 -3 -27 -8 -72 -10 -100 -7 -78 -15 -154 -25 -225 -9 -71 -6 -396 5
-445 26 -126 68 -217 125 -273 87 -85 223 -88 339 -8 87 61 179 170 256 306
27 47 50 87 52 89 6 8 14 -7 19 -35 3 -16 7 -36 9 -44 2 -8 7 -44 10 -80 46
-557 114 -721 270 -656 65 27 78 100 46 250 -5 22 -12 62 -15 88 -4 26 -8 53
-11 60 -2 7 -6 40 -9 73 -4 33 -8 71 -11 85 -5 29 -15 124 -30 275 -4 39 -11
90 -15 115 -5 25 -9 258 -10 519 0 388 -3 477 -14 493 -36 51 -132 90 -176 71z"/>
</g>
</svg>
